<svg xmlns="http://www.w3.org/2000/svg" xmlns:xlink="http://www.w3.org/1999/xlink" version="1.1" width="256" height="256" viewBox="0 0 256 256" xml:space="preserve">
<desc>Created with Fabric.js 1.7.22</desc>
<defs>
</defs>
<g transform="translate(128 128) scale(0.72 0.72)" style="">
	<g style="stroke: none; stroke-width: 0; stroke-dasharray: none; stroke-linecap: butt; stroke-linejoin: miter; stroke-miterlimit: 10; fill: none; fill-rule: nonzero; opacity: 1;" transform="translate(-175.05 -175.05000000000004) scale(3.89 3.89)" >
	<path d="M 18.834 89.999 c 0.384 0 0.768 -0.146 1.061 -0.439 c 0.586 -0.586 0.586 -1.535 0 -2.121 L 3.621 71.165 l 16.273 -16.273 c 0.586 -0.586 0.586 -1.535 0 -2.121 s -1.535 -0.586 -2.121 0 L 0.439 70.105 c -0.586 0.586 -0.586 1.535 0 2.121 L 17.773 89.56 C 18.066 89.853 18.45 89.999 18.834 89.999 z" style="stroke: none; stroke-width: 1; stroke-dasharray: none; stroke-linecap: butt; stroke-linejoin: miter; stroke-miterlimit: 10; fill: rgb(29,29,27); fill-rule: nonzero; opacity: 1;" transform=" matrix(1 0 0 1 0 0) " stroke-linecap="round" />
	<path d="M 1.5 72.665 h 79.934 c 4.724 0 8.566 -3.822 8.566 -8.52 V 1.501 c 0 -0.829 -0.671 -1.5 -1.5 -1.5 S 87 0.672 87 1.501 v 62.645 c 0 3.044 -2.497 5.52 -5.566 5.52 H 1.5 c -0.828 0 -1.5 0.672 -1.5 1.5 S 0.672 72.665 1.5 72.665 z" style="stroke: none; stroke-width: 1; stroke-dasharray: none; stroke-linecap: butt; stroke-linejoin: miter; stroke-miterlimit: 10; fill: rgb(29,29,27); fill-rule: nonzero; opacity: 1;" transform=" matrix(1 0 0 1 0 0) " stroke-linecap="round" />
</g>
</g>
</svg>